<svg width="87" height="36" viewBox="0 0 87 36" fill="none" xmlns="http://www.w3.org/2000/svg">
<path d="M49.2744 12.2189C50.1463 12.2189 50.8531 11.5847 50.8531 10.8023C50.8531 10.02 50.1463 9.38574 49.2744 9.38574C48.4026 9.38574 47.6958 10.02 47.6958 10.8023C47.6958 11.5847 48.4026 12.2189 49.2744 12.2189Z" fill="#B5C7A5"/>
<path d="M42.3691 10.9388V23.1877H45.3072V10.251H43.0531C42.6756 10.251 42.37 10.5587 42.37 10.9388H42.3691Z" fill="#859C73"/>
<path d="M47.8057 14.3822V23.1868H50.7437V13.6943H48.4896C48.1121 13.6943 47.8065 14.002 47.8065 14.3822H47.8057Z" fill="#859C73"/>
<path d="M58.7024 13.4745C57.3641 13.4745 56.422 14.1725 56.0056 14.5544V13.6952H53.7514C53.3739 13.6952 53.0684 14.0029 53.0684 14.3831V26.9848H56.0064V22.805C56.4525 23.1451 57.0552 23.3863 57.8703 23.3863C60.6111 23.3863 62.7154 21.0023 62.7154 17.9995C62.7154 14.9968 60.5451 13.4736 58.7032 13.4736L58.7024 13.4745ZM57.7374 22.3711C57.1347 22.3711 56.4957 21.7975 56.0056 21.223V16.1329C56.4626 15.6752 57.2405 15.0198 57.9126 15.0198C58.9208 15.0198 59.8637 16.4108 59.8637 18.4419C59.8637 20.473 58.9428 22.3711 57.7374 22.3711Z" fill="#859C73"/>
<path d="M68.3042 13.4736C65.7174 13.4736 64.8625 14.0259 64.8625 14.0259L65.1697 14.6882C65.1697 14.6882 66.1347 14.3353 67.7133 14.3353C69.4672 14.3353 69.6424 15.2848 69.6424 16.4551V17.0006C69.2666 16.8898 68.5471 16.7193 67.6473 16.7193C66.3099 16.7193 63.9424 17.2495 63.9424 20.0085C63.9424 22.7675 66.0475 23.3863 67.4281 23.3863C68.2365 23.3863 69.0795 22.9635 69.6424 22.6124V23.1877H72.5805V16.4542C72.5805 14.4675 70.8926 13.4736 68.305 13.4736H68.3042ZM68.129 22.1274C66.9016 22.1274 66.1339 21.3986 66.1339 20.0519C66.1339 18.7053 67.4933 17.8666 68.5674 17.8666C69.1083 17.8666 69.4427 18.0396 69.6416 18.2118V21.5035C69.2954 21.806 68.779 22.1274 68.129 22.1274Z" fill="#859C73"/>
<path d="M84.2379 13.4745H82.2665L79.6213 19.5405L79.5485 19.3974L76.5334 13.4736H73.5234L78.1222 22.5101L78.2323 22.7257L77.7506 23.8295C77.0083 25.3125 74.882 25.2137 74.882 25.2137V26.4555C74.882 26.4555 75.797 26.5331 76.4606 26.4555C77.0921 26.3822 78.4989 25.9586 79.1828 24.4969L80.588 21.4344L84.2387 13.4745H84.2379Z" fill="#859C73"/>
<path d="M35.1073 10.2529H33.8605L32.8473 12.3752L27.6797 23.1888H29.6655L30.6888 21.0477H36.8426L37.8295 23.1888H41.0698L35.4696 11.0396L35.1065 10.2529H35.1073ZM36.4253 20.1426H31.1214L33.8207 14.4916L36.4253 20.1426Z" fill="#859C73"/>
<path d="M24.4393 9.66942V25.5561C24.4182 27.5403 22.8158 29.1401 20.8427 29.1401H5.09952C3.11289 29.1401 1.50293 27.519 1.50293 25.5186V9.66942C1.50293 7.66899 3.11289 6.04785 5.09952 6.04785H20.8427C22.8294 6.04785 24.4393 7.66899 24.4393 9.66942Z" fill="#B5C7A5"/>
<path d="M16.8304 19.0274C18.0086 16.7491 18.7907 14.3438 18.7907 14.3438H14.2419V12.7303H19.848V11.7476H14.2419V9.15137H11.6323V11.7476H6.02535V12.7303H11.6314V14.3438H6.91667V15.2072H16.0271C16.0271 15.2072 15.5217 16.7704 14.6744 18.3174C12.2307 17.5571 9.97576 17.0269 8.16519 17.0269C3.82456 17.0269 2.8613 19.2234 3.06614 21.2315C3.23204 22.8339 4.41539 25.1735 8.03314 25.1735C11.3377 25.1735 14.0049 23.266 15.647 20.9954C18.778 22.4469 22.0852 24.2351 24.4366 25.5545V21.7455C21.9506 20.8872 19.3325 19.8857 16.8278 19.0274H16.8304ZM7.50918 23.8166C4.45179 23.8166 3.97862 22.0813 3.92614 21.0457C3.8762 20.1397 4.48395 18.4392 7.9358 18.4392C9.21987 18.4392 11.2556 19.099 13.5419 20.0604C12.2502 21.7693 10.1798 23.8166 7.50918 23.8166Z" fill="#222D26"/>
</svg>
