<svg width="41" height="40" viewBox="0 0 41 40" fill="none" xmlns="http://www.w3.org/2000/svg">
<path d="M20.3795 9.98897C17.3403 12.2718 15.3744 15.9064 15.3744 20.0002C15.3744 24.094 17.3403 27.7286 20.3795 30.0114C18.2882 31.5823 15.6887 32.5131 12.8718 32.5131C5.9611 32.5131 0.358887 26.9109 0.358887 20.0002C0.358887 13.0895 5.9611 7.4873 12.8718 7.4873C15.6887 7.4873 18.2882 8.41813 20.3795 9.98897Z" fill="#859C73"/>
<path d="M20.3797 30.0117C17.3404 27.7288 15.3745 24.0942 15.3745 20.0005C15.3745 15.9067 17.3404 12.2721 20.3796 9.98926C23.4189 12.2721 25.3848 15.9067 25.3848 20.0005C25.3848 24.0943 23.4189 27.7288 20.3797 30.0117Z" fill="#A1B88E"/>
<path d="M20.3794 30.0114C23.4186 27.7286 25.3846 24.094 25.3846 20.0002C25.3846 15.9064 23.4186 12.2718 20.3794 9.98897C22.4707 8.41813 25.0702 7.4873 27.8871 7.4873C34.7978 7.4873 40.4 13.0895 40.4 20.0002C40.4 26.9109 34.7978 32.5131 27.8871 32.5131C25.0702 32.5131 22.4707 31.5823 20.3794 30.0114Z" fill="#B5C7A5"/>
</svg>
