<svg width="85" height="40" viewBox="0 0 85 40" fill="none" xmlns="http://www.w3.org/2000/svg">
<path fill-rule="evenodd" clip-rule="evenodd" d="M64.5585 18.7486C64.3103 20.3785 63.0654 20.3785 61.8616 20.3785H61.1764L61.6569 17.3353C61.6858 17.1514 61.8444 17.0159 62.031 17.0159H62.3448C63.1644 17.0159 63.9386 17.0159 64.3379 17.4828C64.5767 17.7622 64.6487 18.1763 64.5585 18.7486ZM64.0345 14.4961H59.4937C59.1832 14.4961 58.9189 14.7221 58.8704 15.0288L57.0346 26.6721C56.9982 26.9017 57.1757 27.1095 57.4083 27.1095H59.7382C59.9554 27.1095 60.1406 26.9513 60.1742 26.7366L60.6948 23.4359C60.7433 23.1291 61.0077 22.9032 61.3181 22.9032H62.755C65.7458 22.9032 67.4722 21.4557 67.9234 18.5869C68.1265 17.3322 67.9315 16.3463 67.3439 15.6561C66.6981 14.8974 65.5539 14.4961 64.0345 14.4961Z" fill="#B5C7A5"/>
<path fill-rule="evenodd" clip-rule="evenodd" d="M74.5762 22.9285C74.3665 24.1709 73.3802 25.005 72.1221 25.005C71.4914 25.005 70.9867 24.8021 70.6621 24.4181C70.3405 24.0373 70.2196 23.4948 70.3216 22.8907C70.5173 21.6595 71.5194 20.7985 72.7582 20.7985C73.3755 20.7985 73.8768 21.0034 74.2079 21.391C74.5409 21.7814 74.6715 22.3275 74.5762 22.9285ZM77.6065 18.6965H75.4322C75.246 18.6965 75.0874 18.8318 75.0584 19.0161L74.9628 19.624L74.8109 19.4036C74.3399 18.7202 73.2906 18.4918 72.2424 18.4918C69.8405 18.4918 67.7884 20.3122 67.3891 22.8654C67.1813 24.1391 67.4763 25.3562 68.1982 26.2058C68.8619 26.9864 69.8088 27.3113 70.9369 27.3113C72.8731 27.3113 73.9469 26.0674 73.9469 26.0674L73.8499 26.6717C73.8135 26.9015 73.991 27.1095 74.224 27.1095H76.1818C76.4922 27.1095 76.7566 26.8837 76.8051 26.577L77.9802 19.1338C78.0166 18.904 77.8392 18.6965 77.6065 18.6965Z" fill="#B5C7A5"/>
<path fill-rule="evenodd" clip-rule="evenodd" d="M80.1693 14.8159L78.3055 26.6721C78.2695 26.9019 78.447 27.1095 78.6796 27.1095H80.5539C80.8643 27.1095 81.1287 26.8836 81.1772 26.577L83.0147 14.9337C83.0508 14.7039 82.8733 14.4961 82.6406 14.4961H80.5431C80.3569 14.4961 80.1983 14.6318 80.1693 14.8159Z" fill="#B5C7A5"/>
<path fill-rule="evenodd" clip-rule="evenodd" d="M32.172 18.7485C31.9238 20.3785 30.6789 20.3785 29.475 20.3785H28.7899L29.2704 17.3353C29.2995 17.1514 29.4581 17.0159 29.6442 17.0159H29.9583C30.7779 17.0159 31.5522 17.0159 31.9511 17.4828C32.1901 17.7622 32.2623 18.1763 32.172 18.7485ZM31.6481 14.4961H27.1071C26.7967 14.4961 26.5324 14.7221 26.484 15.0288L24.6477 26.6721C24.6116 26.9017 24.7892 27.1095 25.0216 27.1095H27.1898C27.5002 27.1095 27.7647 26.8836 27.813 26.577L28.3085 23.4358C28.3567 23.1291 28.6212 22.9032 28.9316 22.9032H30.3685C33.3593 22.9032 35.0855 21.4557 35.5367 18.5869C35.7398 17.3322 35.5451 16.3463 34.9575 15.6561C34.3114 14.8974 33.167 14.4961 31.6481 14.4961Z" fill="#859C73"/>
<path fill-rule="evenodd" clip-rule="evenodd" d="M42.1898 22.9285C41.9797 24.1709 40.9934 25.005 39.7354 25.005C39.1051 25.005 38.6 24.8021 38.2757 24.4181C37.9541 24.0372 37.8329 23.4948 37.9349 22.8907C38.1306 21.6595 39.1327 20.7985 40.3715 20.7985C40.9891 20.7985 41.4901 21.0034 41.8211 21.3909C42.1545 21.7814 42.2851 22.3275 42.1898 22.9285ZM45.2201 18.6965H43.0458C42.8593 18.6965 42.701 18.8318 42.6717 19.016L42.5761 19.624L42.4242 19.4036C41.9535 18.7202 40.9039 18.4918 39.856 18.4918C37.4537 18.4918 35.4017 20.3122 35.0023 22.8654C34.7946 24.1391 35.0895 25.3562 35.8118 26.2058C36.4752 26.9864 37.4221 27.3113 38.5501 27.3113C40.4867 27.3113 41.5605 26.0674 41.5605 26.0674L41.4632 26.6717C41.4272 26.9015 41.6046 27.1094 41.8373 27.1094H43.7954C44.1058 27.1094 44.3702 26.8837 44.4183 26.577L45.5939 19.1338C45.6302 18.904 45.4528 18.6965 45.2201 18.6965Z" fill="#859C73"/>
<path fill-rule="evenodd" clip-rule="evenodd" d="M56.8003 18.6965H54.6149C54.4061 18.6965 54.2105 18.8002 54.093 18.973L51.0786 23.4132L49.8007 19.1465C49.7208 18.8795 49.475 18.6965 49.1966 18.6965H47.0482C46.7886 18.6965 46.6061 18.9516 46.6896 19.1971L49.0962 26.2607L46.8327 29.4545C46.6549 29.7051 46.8344 30.0519 47.1415 30.0519H49.3248C49.5319 30.0519 49.7256 29.9505 49.8434 29.7802L57.1118 19.2908C57.2855 19.0398 57.106 18.6965 56.8003 18.6965Z" fill="#859C73"/>
<path fill-rule="evenodd" clip-rule="evenodd" d="M9.0401 29.2263L9.65049 25.3558L9.68989 25.1413C9.71925 24.9548 9.81478 24.7842 9.95867 24.6613C10.1025 24.5384 10.286 24.4707 10.4752 24.4707H10.9599C11.7678 24.4707 12.51 24.3844 13.1662 24.2142C13.8662 24.0327 14.4888 23.7501 15.0166 23.3748C15.5762 22.9768 16.0461 22.4624 16.4137 21.846C16.8015 21.1958 17.0861 20.413 17.26 19.5195C17.4137 18.7305 17.4425 18.0242 17.3459 17.4199C17.2437 16.7816 16.9978 16.2369 16.6151 15.8006C16.3831 15.5363 16.0861 15.3073 15.7327 15.12L15.7243 15.1155L15.7241 15.1053C15.8476 14.3177 15.8429 13.6608 15.71 13.0953C15.5766 12.5286 15.3064 12.0186 14.8833 11.5365C14.0068 10.5378 12.4125 10.0312 10.145 10.0312H3.91747C3.70933 10.0312 3.50729 10.1057 3.34892 10.241C3.19056 10.3763 3.08566 10.5643 3.05301 10.77L0.459975 27.2133C0.436301 27.3633 0.479362 27.5158 0.578136 27.6308C0.676911 27.7466 0.820585 27.8129 0.972417 27.8129H4.83584L4.83237 27.8313L4.56706 29.5137C4.54666 29.6445 4.5842 29.7772 4.67014 29.8776C4.75604 29.9782 4.88117 30.0362 5.0134 30.0362H8.25376C8.4356 30.0362 8.61174 29.971 8.7499 29.8529C8.88806 29.7347 8.97989 29.5709 9.00824 29.3914L9.0401 29.2263Z" fill="#859C73"/>
<path fill-rule="evenodd" clip-rule="evenodd" d="M15.7399 15.1059C15.7213 15.2249 15.7007 15.3459 15.6762 15.4706C14.8552 19.6871 12.0455 21.1448 8.45691 21.1448H6.62958C6.19122 21.1448 5.82102 21.464 5.75266 21.8971L4.55164 29.5115C4.50696 29.7951 4.72634 30.0519 5.01347 30.0519H8.25407C8.63754 30.0519 8.96407 29.7729 9.02384 29.3939L9.05569 29.2292L9.66608 25.3582L9.70548 25.1444C9.76528 24.7654 10.0918 24.4864 10.4752 24.4864H10.9599C14.0993 24.4864 16.5575 23.2109 17.2758 19.5224C17.5758 17.9812 17.4207 16.6947 16.627 15.7902C16.387 15.5167 16.0883 15.2904 15.7399 15.1059Z" fill="#B5C7A5"/>
<path fill-rule="evenodd" clip-rule="evenodd" d="M14.8804 14.7634C14.7553 14.7267 14.6261 14.6938 14.4929 14.6642C14.3596 14.6346 14.2226 14.6085 14.0818 14.5859C13.5888 14.5065 13.0496 14.4685 12.4712 14.4685H7.58986C7.47006 14.4685 7.35577 14.4959 7.25334 14.5448C7.02823 14.6528 6.86108 14.8661 6.82006 15.1267L5.78253 21.705L5.75266 21.8971C5.82102 21.464 6.19122 21.1448 6.62958 21.1448H8.45691C12.0455 21.1448 14.8552 19.6871 15.6762 15.4706C15.7007 15.3459 15.7213 15.2249 15.7399 15.1059C15.5325 14.9961 15.3071 14.9014 15.0651 14.821C15.0045 14.8007 14.943 14.7816 14.8804 14.7634Z" fill="#A1B88E"/>
</svg>
