<svg width="68" height="42" viewBox="0 0 68 42" fill="none" xmlns="http://www.w3.org/2000/svg">
<path fill-rule="evenodd" clip-rule="evenodd" d="M22.4334 28.3907H18.478L15.5119 16.7421C15.3711 16.2063 15.0722 15.7325 14.6325 15.5093C13.5351 14.9482 12.326 14.5017 11.0068 14.2765V13.828H17.3787C18.2581 13.828 18.9177 14.5017 19.0276 15.2841L20.5666 23.6866L24.52 13.828H28.3655L22.4334 28.3907ZM30.5641 28.3907H26.8285L29.9045 13.828H33.6401L30.5641 28.3907ZM38.473 17.8623C38.5829 17.078 39.2425 16.6295 40.012 16.6295C41.2211 16.5169 42.5383 16.7421 43.6376 17.3013L44.2971 14.1659C43.1979 13.7174 41.9887 13.4922 40.8914 13.4922C37.2657 13.4922 34.6275 15.5093 34.6275 18.3089C34.6275 20.4386 36.4962 21.5569 37.8154 22.2306C39.2425 22.9023 39.7921 23.3508 39.6822 24.0225C39.6822 25.0301 38.5829 25.4786 37.4856 25.4786C36.1665 25.4786 34.8474 25.1427 33.6401 24.5816L32.9805 27.719C34.2996 28.2781 35.7268 28.5033 37.0459 28.5033C41.1112 28.614 43.6376 26.5988 43.6376 23.574C43.6376 19.7649 38.473 19.5417 38.473 17.8623ZM56.7111 28.3907L53.745 13.828H50.5591C49.8995 13.828 49.24 14.2765 49.0201 14.9482L43.5277 28.3907H47.3732L48.1407 26.2629H52.8656L53.3053 28.3907H56.7111ZM51.1087 17.7498L52.206 23.2382H49.13L51.1087 17.7498Z" fill="#B5C7A5"/>
</svg>
